<?xml version="1.0" encoding="utf-8"?>
<!-- Generator: Adobe Illustrator 17.1.0, SVG Export Plug-In . SVG Version: 6.00 Build 0)  -->
<!DOCTYPE svg PUBLIC "-//W3C//DTD SVG 1.1//EN" "http://www.w3.org/Graphics/SVG/1.1/DTD/svg11.dtd">
<svg version="1.1" id="Layer_4" xmlns="http://www.w3.org/2000/svg" xmlns:xlink="http://www.w3.org/1999/xlink" x="0px" y="0px"
	 viewBox="0 0 111 111" enable-background="new 0 0 111 111" xml:space="preserve">
<path fill="#FF3A1E" d="M0,0v111h111V0H0z M84.202,57.596c-0.396,0.961-1.547,1.117-1.547,7.582c0.107,4.82-1.608,8.74-2.043,9.18
	c-1.101,2.141-2.916,5.555-4.277,7.709c-0.265,0.764-6.489,7.26-6.58,7.352c0,0-4.017,5.416-7.029,6.605
	c0,0-3.142,1.334-6.039-0.268c-1.694-0.936-3.804,0.916-7.001,1.215c-1.58,0.146-2.955-1.518-2.955-1.518s-2.101,0.311-2.844,0.154
	c-1.7-0.355-6.95-1.703-8.548-5.152c-0.683-1.465-1.779-2.656-2.766-3.805c-0.279-0.109-3.103-2.969-3.417-3.375
	c-0.321-0.408-2.757-3.031-3.12-4.381c-0.361-1.35-2.163-4.377-2.617-5.594c-0.46-1.219-0.69-2.408-0.949-3.023
	c-1.096-2.609,0.451-6.094,0.59-6.139c0.131-0.045,0.68,0.672,1.109,1.881c0.19,0.283,0.444,0.6,0.696,0.961
	c0.539,0.793,0.984,2.35,1.193,2.65c0.291,0.135,1.411,1.881,2.255,2.176c3.775,1.324,6.323,2.488,6.703,2.598
	c0.385,0.113,1.018,0.41,1.267,0.338c0.057-0.012,1.311,0.062,2.363-2.77c0.345-0.934,1.329-2.424,1.364-2.477
	c1.063-3.42-0.185-10.959-0.551-12.385c-0.282-1.062-0.731-2.934-0.922-5.293c-0.192-2.361-0.063-4.857-0.298-5.502
	c-0.236-0.643-0.618-5.352-0.017-8.594c0.856-4.615-0.725-6.643,0.065-11.385c0.236-1.416,0.562-2.924,1.185-4.428
	c1.414-4.236,3.924-8.449,4.044-7.83c1.969,10.15,3.869,12.75,4.264,14.402c0.45,1.898,0.912,4.75,1.362,6.082
	c0.45,1.336,0.455,2.348,0.681,2.852c0.019,0.037,0.033,0.074,0.051,0.117c0.373,0.932,2.06,3.51,3.565,12.105
	c0.156,0.891,0.504,3.279,0.327,4.611c-0.204,1.523-0.551,3.426-0.375,4.811c0.177,0.291,0.44,0.787,0.604,1.531
	c0.164,0.742,1.493,1.422,1.873,1.619c0.456-0.268,0.941-0.107,1.547-1.725c1.812-4.84,2.995-6.258,4.322-9.43
	c1.824-4.363,1.532-5.807,2.604-8.391c1.145-2.76,1.543-1.877,1.738-3.605c0.196-1.725-0.356-2.639,0.117-7.107
	c0.928-8.764,2.093-9.301,2.093-9.301s3.002,4.381,3.599,8.42c0.597,4.037,0.341,5.994,0.318,8.207
	c-0.039,3.688,1.461,4.07,1.699,6.74c0.238,2.668-0.654,6.693-0.741,8.32c-0.098,1.627-0.297,2.768-0.84,5.342
	c-0.544,2.574-2.726,6.697-2.383,8.852c0.009,0.004,0.009,0.021,0.016,0.027c0.052,0.068,0.116,0.154,0.167,0.236
	c0.403,0.018,1.045-0.211,2.554-1.354c1.51-1.145,1.345-3.037,2.33-4.791c1.871-3.33,2.835-3.404,2.897-5.039
	c0.056-1.502-0.148-2.77,1.33-5.461c2.095-3.818,1.659-10.5,1.997-10.875c0.337-0.375,3.007,5.754,3.851,9.18
	C85.578,52.455,85.196,55.19,84.202,57.596z"/>
</svg>